<svg version="1.2" xmlns="http://www.w3.org/2000/svg" viewBox="0 0 303 303" width="303" height="303"><style>.a{fill:#010002}</style><filter id="f0"><feFlood flood-color="#590000" flood-opacity="1" /><feBlend mode="normal" in2="SourceGraphic"/><feComposite in2="SourceAlpha" operator="in" /></filter><g filter="url(#f0)"><path fill-rule="evenodd" class="a" d="m151.5 303c-83.5 0-151.5-68-151.5-151.5 0-83.6 68-151.5 151.5-151.5 83.5 0 151.5 68 151.5 151.5 0 83.5-68 151.5-151.5 151.5zm0-278.6c-70.1 0-127.1 57-127.1 127.1 0 70 57 127.1 127.1 127.1 70 0 127.1-57.1 127.1-127.1 0-70.1-57-127.1-127.1-127.1z"/></g><path class="a" d="m116.6 118.1q2.7-6.9 7.5-11.9 4.8-5.1 11.7-7.9 6.8-2.9 15.2-2.9 10.9 0 18.2 3 7.3 3 11.7 7.5 4.5 4.4 6.4 9.5 1.9 5.2 1.9 9.6 0 7.4-1.9 12.2-1.9 4.7-4.7 8.1-2.9 3.4-6.3 5.7-3.5 2.4-6.6 4.8-3 2.4-5.4 5.4-2.4 3.1-3 7.7v5.8h-20.7v-6.9q0.5-6.6 2.5-11 2.1-4.5 4.9-7.6 2.7-3.2 5.8-5.5 3.1-2.3 5.7-4.5 2.6-2.4 4.2-5.1 1.6-2.8 1.4-6.9 0-7.1-3.4-10.5-3.5-3.3-9.6-3.3-4.1 0-7.1 1.6-3 1.6-4.9 4.3-2 2.7-2.9 6.3-0.9 3.6-0.9 7.7h-22.5q0.1-8.3 2.8-15.2zm45.9 65.8v23.7h-24.1v-23.7z"/></svg>